<svg xmlns="http://www.w3.org/2000/svg" viewBox="0 0 64 64">
  <g transform="translate(20.749 44.472) scale(0.0660 -0.0660)">
    <path d="M-76 -205Q-89 -205 -89 -194Q-89 -184 -73 -182L-59 -180Q-39 -177 -29.5 -168.5Q-20 -160 -15 -138L118 436Q120 444 115.5 448.5Q111 453 103 448Q93 443 84.0 437.5Q75 432 66 426Q57 420 51.0 422.5Q45 425 45 432Q45 439 55 446Q83 465 113 479Q130 487 134 505L147 562Q152 583 173 583H191Q203 583 209.0 576.0Q215 569 212 556L205 527Q202 510 218 513Q241 516 262 516Q336 516 383.0 474.0Q430 432 430 345Q430 277 405.0 213.5Q380 150 339.0 100.0Q298 50 249.0 20.5Q200 -9 151 -9Q124 -9 100 2Q85 9 82 -6L52 -138Q47 -160 52.5 -167.0Q58 -174 77 -177L103 -181Q121 -184 121 -193Q121 -205 104 -205ZM110 115Q92 16 153 16Q188 16 224.0 45.5Q260 75 291.0 124.5Q322 174 341.0 236.0Q360 298 360 363Q360 430 331.0 459.5Q302 489 246 489Q196 489 189 455Z" fill="#df2225"/>
  </g>
</svg>
